<svg width="162" height="50" viewBox="0 0 162 50" fill="none" xmlns="http://www.w3.org/2000/svg">
<g clip-path="url(#clip0_3402_3908)">
<path d="M155.98 0.824219H5.24852C2.46203 0.824219 0.203125 3.20653 0.203125 6.14525V44.5032C0.203125 47.4419 2.46203 49.8242 5.24852 49.8242H155.98C158.767 49.8242 161.026 47.4419 161.026 44.5032V6.14525C161.026 3.20653 158.767 0.824219 155.98 0.824219Z" fill="#1D1D1D"/>
<path d="M56.4242 14.0591C56.4242 14.8259 56.27 15.4997 55.9659 16.0853C55.6619 16.6708 55.2168 17.1262 54.6396 17.4515C54.0623 17.7768 53.3749 17.9395 52.5774 17.9395H49.9688V10.1973H52.5774C53.3749 10.1973 54.0623 10.3599 54.6396 10.6759C55.2168 10.9919 55.6619 11.4427 55.9659 12.0236C56.27 12.6045 56.4242 13.283 56.4242 14.0591ZM52.4496 16.5593C53.2427 16.5593 53.8552 16.3409 54.2871 15.8994C54.7189 15.4625 54.9348 14.8491 54.9348 14.0591C54.9348 13.2598 54.7189 12.6417 54.2871 12.2049C53.8552 11.768 53.2427 11.5496 52.4496 11.5496H51.4317V16.5593H52.4496Z" fill="white"/>
<path d="M60.9675 10.0898C61.6505 10.0898 62.2762 10.2571 62.8314 10.5917C63.391 10.931 63.8317 11.4004 64.1533 11.9998C64.475 12.604 64.6336 13.2871 64.6336 14.0446C64.6336 14.8067 64.475 15.4899 64.1533 16.0987C63.8317 16.7028 63.391 17.1768 62.8314 17.5114C62.2762 17.846 61.6505 18.018 60.9675 18.018C60.2801 18.018 59.6587 17.846 59.0991 17.5114C58.5439 17.1768 58.1033 16.7028 57.7816 16.0987C57.4555 15.4899 57.2969 14.8067 57.2969 14.0446C57.2969 13.2871 57.4555 12.604 57.7816 11.9998C58.1033 11.4004 58.5439 10.931 59.0991 10.5917C59.6587 10.2571 60.2801 10.0898 60.9675 10.0898ZM60.9675 11.5119C60.5356 11.5119 60.1567 11.6188 59.8306 11.8232C59.5089 12.0277 59.2533 12.3205 59.0683 12.7016C58.8832 13.0873 58.7951 13.5334 58.7951 14.0446C58.7951 14.5604 58.8832 15.0066 59.0683 15.3876C59.2533 15.7734 59.5089 16.0661 59.8306 16.2706C60.1567 16.4751 60.5356 16.5773 60.9675 16.5773C61.3949 16.5773 61.7738 16.4751 62.0999 16.2706C62.426 16.0661 62.6816 15.7734 62.8622 15.3876C63.0473 15.0066 63.1398 14.5604 63.1398 14.0446C63.1398 13.5334 63.0473 13.0873 62.8622 12.7016C62.6816 12.3205 62.426 12.0277 62.0999 11.8232C61.7738 11.6188 61.3949 11.5119 60.9675 11.5119Z" fill="white"/>
<path d="M75.3609 10.1973L73.5631 17.9395H71.7565L70.3816 12.3257L68.998 17.9395H67.2002L65.4023 10.1973H66.9931L68.1167 16.1968L69.5709 10.1973H71.1836L72.6466 16.1968L73.7702 10.1973H75.3609Z" fill="white"/>
<path d="M82.5764 17.9395H81.1134L77.8262 12.6789V17.9395H76.3633V10.1973H77.8262L81.1134 15.5044V10.1973H82.5764V17.9395Z" fill="white"/>
<path d="M85.3736 16.7545H87.8368V17.9395H83.9062V10.1973H85.3736V16.7545Z" fill="white"/>
<path d="M92.1471 10.0898C92.8345 10.0898 93.4559 10.2571 94.0155 10.5917C94.5707 10.931 95.0113 11.4004 95.333 11.9998C95.6591 12.604 95.8177 13.2871 95.8177 14.0446C95.8177 14.8067 95.6591 15.4899 95.333 16.0987C95.0113 16.7028 94.5707 17.1768 94.0155 17.5114C93.4559 17.846 92.8345 18.018 92.1471 18.018C91.4641 18.018 90.8384 17.846 90.2832 17.5114C89.7236 17.1768 89.2829 16.7028 88.9613 16.0987C88.6396 15.4899 88.4766 14.8067 88.4766 14.0446C88.4766 13.2871 88.6396 12.604 88.9613 11.9998C89.2829 11.4004 89.7236 10.931 90.2832 10.5917C90.8384 10.2571 91.4641 10.0898 92.1471 10.0898ZM92.1471 11.5119C91.7197 11.5119 91.3408 11.6188 91.0147 11.8232C90.6886 12.0277 90.433 12.3205 90.2524 12.7016C90.0673 13.0873 89.9748 13.5334 89.9748 14.0446C89.9748 14.5604 90.0673 15.0066 90.2524 15.3876C90.433 15.7734 90.6886 16.0661 91.0147 16.2706C91.3408 16.4751 91.7197 16.5773 92.1471 16.5773C92.579 16.5773 92.9579 16.4751 93.2796 16.2706C93.6057 16.0661 93.8613 15.7734 94.0463 15.3876C94.2314 15.0066 94.3195 14.5604 94.3195 14.0446C94.3195 13.5334 94.2314 13.0873 94.0463 12.7016C93.8613 12.3205 93.6057 12.0277 93.2796 11.8232C92.9579 11.6188 92.579 11.5119 92.1471 11.5119Z" fill="white"/>
<path d="M101.397 16.3823H98.4533L97.9334 17.9391H96.3867L99.0879 10.2852H100.762L103.455 17.9391H101.904L101.397 16.3823ZM101 15.2112L99.9207 11.9442L98.8367 15.2112H101Z" fill="white"/>
<path d="M110.698 14.0591C110.698 14.8259 110.548 15.4997 110.239 16.0853C109.935 16.6708 109.495 17.1262 108.917 17.4515C108.336 17.7768 107.648 17.9395 106.851 17.9395H104.242V10.1973H106.851C107.648 10.1973 108.336 10.3599 108.917 10.6759C109.495 10.9919 109.935 11.4427 110.239 12.0236C110.548 12.6045 110.698 13.283 110.698 14.0591ZM106.727 16.5593C107.516 16.5593 108.129 16.3409 108.561 15.8994C108.997 15.4625 109.213 14.8491 109.213 14.0591C109.213 13.2598 108.997 12.6417 108.561 12.2049C108.129 11.768 107.516 11.5496 106.727 11.5496H105.71V16.5593H106.727Z" fill="white"/>
<path d="M118.615 10.1973V11.4288H115.526V13.5014H118.002V14.6818H115.526V17.9395H114.059V10.1973H118.615Z" fill="white"/>
<path d="M123.434 17.9395L121.72 14.9235H121.077V17.9395H119.609V10.1973H122.407C123.258 10.1973 123.91 10.4203 124.355 10.8572C124.8 11.294 125.025 11.8749 125.025 12.5906C125.025 13.1761 124.871 13.6641 124.562 14.0591C124.254 14.4541 123.809 14.7143 123.227 14.8491L125.056 17.9395H123.434ZM121.077 13.8593H122.28C123.121 13.8593 123.54 13.4689 123.54 12.6882C123.54 12.3164 123.439 12.0236 123.231 11.8145C123.029 11.61 122.712 11.5031 122.28 11.5031H121.077V13.8593Z" fill="white"/>
<path d="M129.456 10.0898C130.143 10.0898 130.764 10.2571 131.324 10.5917C131.879 10.931 132.32 11.4004 132.642 11.9998C132.963 12.604 133.126 13.2871 133.126 14.0446C133.126 14.8067 132.963 15.4899 132.642 16.0987C132.32 16.7028 131.879 17.1768 131.324 17.5114C130.764 17.846 130.143 18.018 129.456 18.018C128.768 18.018 128.147 17.846 127.592 17.5114C127.032 17.1768 126.592 16.7028 126.27 16.0987C125.948 15.4899 125.785 14.8067 125.785 14.0446C125.785 13.2871 125.948 12.604 126.27 11.9998C126.592 11.4004 127.032 10.931 127.592 10.5917C128.147 10.2571 128.768 10.0898 129.456 10.0898ZM129.456 11.5119C129.028 11.5119 128.649 11.6188 128.323 11.8232C127.997 12.0277 127.742 12.3205 127.561 12.7016C127.376 13.0873 127.283 13.5334 127.283 14.0446C127.283 14.5604 127.376 15.0066 127.561 15.3876C127.742 15.7734 127.997 16.0661 128.323 16.2706C128.649 16.4751 129.028 16.5773 129.456 16.5773C129.888 16.5773 130.262 16.4751 130.588 16.2706C130.914 16.0661 131.17 15.7734 131.355 15.3876C131.536 15.0066 131.628 14.5604 131.628 14.0446C131.628 13.5334 131.536 13.0873 131.355 12.7016C131.17 12.3205 130.914 12.0277 130.588 11.8232C130.262 11.6188 129.888 11.5119 129.456 11.5119Z" fill="white"/>
<path d="M142.132 10.2852V17.9391H140.678V12.5995L138.819 17.9391H137.55L135.69 12.6227V17.9391H134.223V10.2852H135.998L138.206 16.043L140.365 10.2852H142.132Z" fill="white"/>
<path d="M56.0849 25.3281C57.5919 25.3281 58.8434 25.7185 59.8348 26.4992C60.8263 27.2846 61.4652 28.3395 61.7428 29.6733H59.1518C58.905 29.0784 58.5173 28.609 57.9841 28.2559C57.4553 27.9073 56.8252 27.7307 56.1025 27.7307C55.3887 27.7307 54.7586 27.9027 54.2078 28.2466C53.6614 28.5951 53.2339 29.0877 52.9299 29.7244C52.6258 30.3657 52.4716 31.1185 52.4716 31.9829C52.4716 33.3492 52.8197 34.4134 53.516 35.1802C54.2122 35.9423 55.1596 36.3234 56.3625 36.3234C57.2526 36.3234 58.0149 36.0492 58.6495 35.4915C59.2884 34.9385 59.6982 34.1671 59.8877 33.1819H55.6971V31.3184H61.9543V33.8278C61.7781 34.6922 61.4388 35.4869 60.9276 36.2165C60.4209 36.9415 59.7555 37.5224 58.9315 37.9592C58.1075 38.4007 57.1645 38.6191 56.1025 38.6191C54.8864 38.6191 53.8156 38.3356 52.8858 37.778C51.9561 37.2156 51.2378 36.4349 50.7311 35.4311C50.2199 34.4227 49.9688 33.2748 49.9688 31.9829C49.9688 30.6863 50.2199 29.5385 50.7311 28.5347C51.2378 27.5309 51.9517 26.7455 52.877 26.1786C53.798 25.6116 54.8687 25.3281 56.0849 25.3281Z" fill="white"/>
<path d="M68.2996 28.1348C69.247 28.1348 70.0975 28.3485 70.851 28.7668C71.6045 29.185 72.1949 29.7892 72.6268 30.5838C73.063 31.3785 73.2789 32.3126 73.2789 33.3861C73.2789 34.4596 73.063 35.389 72.6268 36.1791C72.1949 36.9644 71.6045 37.5732 70.851 37.9961C70.0975 38.4236 69.247 38.6374 68.2996 38.6374C67.3522 38.6374 66.5018 38.4236 65.7483 37.9961C64.9948 37.5732 64.4043 36.9644 63.9725 36.1791C63.5362 35.389 63.3203 34.4596 63.3203 33.3861C63.3203 32.3126 63.5362 31.3785 63.9725 30.5838C64.4043 29.7892 64.9948 29.185 65.7483 28.7668C66.5018 28.3485 67.3522 28.1348 68.2996 28.1348ZM68.2996 30.3933C67.6122 30.3933 67.0262 30.6489 66.5458 31.1601C66.0699 31.6713 65.8276 32.4148 65.8276 33.3861C65.8276 34.362 66.0699 35.1009 66.5458 35.6121C67.0262 36.1233 67.6122 36.3789 68.2996 36.3789C68.987 36.3789 69.5731 36.1233 70.0534 35.6121C70.5293 35.1009 70.7716 34.362 70.7716 33.3861C70.7716 32.4148 70.5293 31.6713 70.0534 31.1601C69.5731 30.6489 68.987 30.3933 68.2996 30.3933Z" fill="white"/>
<path d="M79.5145 28.1348C80.4574 28.1348 81.3079 28.3485 82.0614 28.7668C82.8149 29.185 83.4098 29.7892 83.8416 30.5838C84.2734 31.3785 84.4894 32.3126 84.4894 33.3861C84.4894 34.4596 84.2734 35.389 83.8416 36.1791C83.4098 36.9644 82.8149 37.5732 82.0614 37.9961C81.3079 38.4236 80.4574 38.6374 79.5145 38.6374C78.5671 38.6374 77.7166 38.4236 76.9631 37.9961C76.2096 37.5732 75.6147 36.9644 75.1829 36.1791C74.7511 35.389 74.5352 34.4596 74.5352 33.3861C74.5352 32.3126 74.7511 31.3785 75.1829 30.5838C75.6147 29.7892 76.2096 29.185 76.9631 28.7668C77.7166 28.3485 78.5671 28.1348 79.5145 28.1348ZM79.5145 30.3933C78.8226 30.3933 78.241 30.6489 77.7607 31.1601C77.2804 31.6713 77.0424 32.4148 77.0424 33.3861C77.0424 34.362 77.2804 35.1009 77.7607 35.6121C78.241 36.1233 78.8226 36.3789 79.5145 36.3789C80.2019 36.3789 80.7879 36.1233 81.2638 35.6121C81.7441 35.1009 81.9821 34.362 81.9821 33.3861C81.9821 32.4148 81.7441 31.6713 81.2638 31.1601C80.7879 30.6489 80.2019 30.3933 79.5145 30.3933Z" fill="white"/>
<path d="M90.0458 28.1348C90.8654 28.1348 91.566 28.3392 92.1477 28.7482C92.7337 29.1525 93.148 29.7009 93.3947 30.3933V28.2649H95.8491V38.5445C95.8491 39.4925 95.6684 40.3476 95.3115 41.1051C94.9546 41.8626 94.4258 42.4574 93.7164 42.885C93.0113 43.3171 92.1565 43.5356 91.1518 43.5356C89.7462 43.5356 88.6137 43.1824 87.75 42.4806C86.8864 41.7789 86.3576 40.8216 86.1725 39.6133H88.6093C88.7503 40.1338 89.0191 40.5381 89.4245 40.8262C89.8255 41.1144 90.3454 41.2584 90.9756 41.2584C91.6982 41.2584 92.2843 41.0354 92.7293 40.5846C93.17 40.1338 93.3947 39.4553 93.3947 38.5445V36.3603C93.148 37.0527 92.7337 37.6057 92.1477 38.0147C91.566 38.4283 90.8654 38.6374 90.0458 38.6374C89.2262 38.6374 88.4903 38.4283 87.8382 38.0054C87.1816 37.5872 86.6704 36.983 86.3047 36.1883C85.9346 35.3937 85.7539 34.4596 85.7539 33.3861C85.7539 32.3126 85.9346 31.3785 86.3047 30.5838C86.6704 29.7892 87.1816 29.185 87.8382 28.7668C88.4903 28.3485 89.2262 28.1348 90.0458 28.1348ZM90.8169 30.4119C90.0458 30.4119 89.4289 30.6768 88.9574 31.2066C88.4903 31.7363 88.2568 32.4613 88.2568 33.3861C88.2568 34.3109 88.4903 35.0358 88.9574 35.5563C89.4289 36.0815 90.0458 36.3417 90.8169 36.3417C91.566 36.3417 92.1829 36.0768 92.6676 35.5377C93.1524 35.0033 93.3947 34.2876 93.3947 33.3861C93.3947 32.4752 93.1524 31.7503 92.6676 31.2159C92.1829 30.6768 91.566 30.4119 90.8169 30.4119Z" fill="white"/>
<path d="M100.565 24.8262V38.5075H98.0977V24.8262H100.565Z" fill="white"/>
<path d="M111.94 33.0004C111.94 33.256 111.909 33.5534 111.852 33.8833H104.736C104.771 34.7988 105.004 35.468 105.436 35.9002C105.868 36.3324 106.406 36.5462 107.049 36.5462C107.622 36.5462 108.098 36.3975 108.477 36.1047C108.856 35.8073 109.102 35.4076 109.204 34.9011H111.817C111.689 35.6167 111.416 36.2581 110.993 36.825C110.574 37.392 110.032 37.8335 109.371 38.1541C108.71 38.4748 107.979 38.6374 107.172 38.6374C106.225 38.6374 105.383 38.4236 104.647 37.9961C103.912 37.5732 103.339 36.9644 102.929 36.1791C102.524 35.389 102.316 34.4596 102.316 33.3861C102.316 32.3126 102.524 31.3785 102.929 30.5838C103.339 29.7892 103.912 29.185 104.647 28.7668C105.383 28.3485 106.225 28.1348 107.172 28.1348C108.129 28.1348 108.97 28.3485 109.688 28.7668C110.407 29.185 110.962 29.7613 111.354 30.4955C111.742 31.2251 111.94 32.0616 111.94 33.0004ZM109.45 32.7401C109.486 31.899 109.279 31.267 108.829 30.8348C108.38 30.4026 107.824 30.1888 107.172 30.1888C106.507 30.1888 105.947 30.4026 105.489 30.8348C105.035 31.267 104.784 31.899 104.736 32.7401H109.45Z" fill="white"/>
<path d="M119.988 33.664V38.5063H117.516V25.457H122.019C123.478 25.457 124.579 25.8242 125.324 26.5631C126.064 27.302 126.434 28.3104 126.434 29.5791C126.434 30.8199 126.051 31.8144 125.289 32.5533C124.522 33.2922 123.434 33.664 122.019 33.664H119.988ZM121.755 31.5727C123.204 31.5727 123.927 30.9082 123.927 29.5791C123.927 28.9238 123.76 28.4266 123.42 28.0827C123.081 27.7342 122.526 27.5622 121.755 27.5622H119.988V31.5727H121.755Z" fill="white"/>
<path d="M130.523 24.8262V38.5075H128.051V24.8262H130.523Z" fill="white"/>
<path d="M136.561 28.1348C137.381 28.1348 138.082 28.3392 138.663 28.7482C139.249 29.1525 139.664 29.7009 139.91 30.3933V28.2649H142.365V38.5073H139.91V36.3603C139.664 37.0527 139.249 37.6057 138.663 38.0147C138.082 38.4283 137.381 38.6374 136.561 38.6374C135.746 38.6374 135.01 38.4283 134.354 38.0054C133.702 37.5872 133.19 36.983 132.82 36.1883C132.45 35.3937 132.27 34.4596 132.27 33.3861C132.27 32.3126 132.45 31.3785 132.82 30.5838C133.19 29.7892 133.702 29.185 134.354 28.7668C135.01 28.3485 135.746 28.1348 136.561 28.1348ZM137.333 30.4119C136.561 30.4119 135.945 30.6768 135.477 31.2066C135.01 31.7363 134.772 32.4613 134.772 33.3861C134.772 34.3109 135.01 35.0358 135.477 35.5563C135.945 36.0815 136.561 36.3417 137.333 36.3417C138.082 36.3417 138.699 36.0768 139.183 35.5377C139.668 35.0033 139.91 34.2876 139.91 33.3861C139.91 32.4752 139.668 31.7503 139.183 31.2159C138.699 30.6768 138.082 30.4119 137.333 30.4119Z" fill="white"/>
<path d="M146.277 28.2656L148.921 35.2178L151.376 28.2656H154.095L148.15 43.3876H145.418L147.608 38.2106L143.523 28.2656H146.277Z" fill="white"/>
<path fill-rule="evenodd" clip-rule="evenodd" d="M33.7206 19.2129L27.6133 25.3704L33.7339 31.5187C36.6069 29.7853 39.1362 28.2145 41.172 26.8389C42.4146 25.9978 42.3749 24.506 41.1631 23.7486C39.2992 22.5868 36.6906 21.0021 33.7206 19.2129Z" fill="url(#paint0_linear_3402_3908)"/>
<path fill-rule="evenodd" clip-rule="evenodd" d="M33.726 19.2141L27.8698 25.4506L10.8477 7.00588C11.4557 6.53651 12.3326 6.47145 13.2888 7.03376C19.2023 10.5377 27.3058 15.3476 33.726 19.2141Z" fill="url(#paint1_linear_3402_3908)"/>
<path fill-rule="evenodd" clip-rule="evenodd" d="M33.7365 31.5203L27.8407 25.3535L10.9375 43.5752C11.5852 44.0585 12.4709 44.2025 13.2553 43.7239C20.6537 39.23 27.9024 35.0429 33.7365 31.5203Z" fill="url(#paint2_linear_3402_3908)"/>
<path fill-rule="evenodd" clip-rule="evenodd" d="M10.8504 7.00586L27.899 25.418L10.943 43.5746C10.3878 43.1564 10 42.4779 10 41.7111V9.0088C10 8.12583 10.3261 7.41017 10.8504 7.00586Z" fill="url(#paint3_linear_3402_3908)"/>
</g>
<defs>
<linearGradient id="paint0_linear_3402_3908" x1="41.3658" y1="22.5263" x2="28.1413" y2="27.7084" gradientUnits="userSpaceOnUse">
<stop stop-color="#FFDB00"/>
<stop offset="1" stop-color="#FFBC00"/>
</linearGradient>
<linearGradient id="paint1_linear_3402_3908" x1="22.2868" y1="6.62945" x2="22.2868" y2="25.4506" gradientUnits="userSpaceOnUse">
<stop stop-color="#10D774"/>
<stop offset="1" stop-color="#00F076"/>
</linearGradient>
<linearGradient id="paint2_linear_3402_3908" x1="13.0041" y1="40.4383" x2="32.1619" y2="29.8247" gradientUnits="userSpaceOnUse">
<stop stop-color="#E02554"/>
<stop offset="1" stop-color="#FF3A44"/>
</linearGradient>
<linearGradient id="paint3_linear_3402_3908" x1="29.0579" y1="18.5495" x2="8.24107" y2="31.0302" gradientUnits="userSpaceOnUse">
<stop stop-color="#00C3FF"/>
<stop offset="1" stop-color="#00E3FF"/>
</linearGradient>
<clipPath id="clip0_3402_3908">
<rect width="161" height="49" fill="white" transform="translate(0.117188 0.824219)"/>
</clipPath>
</defs>
</svg>
