<svg width="31" height="33" viewBox="0 0 31 33" fill="none" xmlns="http://www.w3.org/2000/svg">
<g clip-path="url(#clip0_3402_3959)">
<path d="M25.9745 0.00195312H4.05846C1.82571 0.00195312 0.015625 1.94516 0.015625 4.3423V27.8713C0.015625 30.2685 1.82564 32.2117 4.05846 32.2117H14.8674L14.8858 20.7017H12.1005C11.7385 20.7017 11.4447 20.3874 11.4433 19.9988L11.43 16.2887C11.4286 15.8979 11.7232 15.5804 12.0872 15.5804H14.8674V11.9954C14.8674 7.83514 17.2341 5.56983 20.691 5.56983H23.5276C23.8906 5.56983 24.1849 5.88571 24.1849 6.27542V9.40385C24.1849 9.7934 23.8908 10.1092 23.528 10.1094L21.7872 10.1103C19.9072 10.1103 19.5432 11.0694 19.5432 12.4769V15.5805H23.6741C24.0677 15.5805 24.3731 15.9495 24.3267 16.3691L23.9171 20.0793C23.8779 20.4343 23.5975 20.7018 23.2645 20.7018H19.5616L19.5432 32.2118H25.9747C28.2074 32.2118 30.0175 30.2686 30.0175 27.8716V4.3423C30.0174 1.94516 28.2074 0.00195312 25.9745 0.00195312Z" fill="white"/>
</g>
<defs>
<clipPath id="clip0_3402_3959">
<rect width="30.0021" height="32.2099" fill="white" transform="translate(0.015625 0.00195312)"/>
</clipPath>
</defs>
</svg>
