<svg width="31" height="33" viewBox="0 0 31 33" fill="none" xmlns="http://www.w3.org/2000/svg">
<path d="M8.78222 1.07617C4.48703 1.07617 1.00391 4.81562 1.00391 9.42689V22.788C1.00391 27.3993 4.48703 31.1387 8.78222 31.1387H21.2275C25.5227 31.1387 29.0058 27.3993 29.0058 22.788V9.42689C29.0058 4.81562 25.5227 1.07617 21.2275 1.07617H8.78222ZM24.3388 4.41646C25.1976 4.41646 25.8945 5.16468 25.8945 6.0866C25.8945 7.00852 25.1976 7.75674 24.3388 7.75674C23.4801 7.75674 22.7832 7.00852 22.7832 6.0866C22.7832 5.16468 23.4801 4.41646 24.3388 4.41646ZM15.0049 7.75674C19.3 7.75674 22.7832 11.4962 22.7832 16.1075C22.7832 20.7187 19.3 24.4582 15.0049 24.4582C10.7097 24.4582 7.22655 20.7187 7.22655 16.1075C7.22655 11.4962 10.7097 7.75674 15.0049 7.75674ZM15.0049 11.097C13.7671 11.097 12.58 11.6249 11.7048 12.5645C10.8296 13.5042 10.3379 14.7786 10.3379 16.1075C10.3379 17.4363 10.8296 18.7107 11.7048 19.6504C12.58 20.59 13.7671 21.1179 15.0049 21.1179C16.2426 21.1179 17.4297 20.59 18.3049 19.6504C19.1802 18.7107 19.6718 17.4363 19.6718 16.1075C19.6718 14.7786 19.1802 13.5042 18.3049 12.5645C17.4297 11.6249 16.2426 11.097 15.0049 11.097Z" fill="white"/>
</svg>
