<svg width="31" height="33" viewBox="0 0 31 33" fill="none" xmlns="http://www.w3.org/2000/svg">
<g clip-path="url(#clip0_3402_3961)">
<path d="M27.0175 0.00195312H3.01583C1.36572 0.00195312 0.015625 1.4514 0.015625 3.22294V28.9909C0.015625 30.7624 1.36572 32.2118 3.01583 32.2118H27.0175C28.6676 32.2118 30.0177 30.7624 30.0177 28.9909V3.22294C30.0177 1.4514 28.6676 0.00195312 27.0175 0.00195312ZM9.01624 27.3804H4.51593V12.8859H9.01624V27.3804ZM6.76609 10.1481C5.26598 10.1481 4.0659 8.85967 4.0659 7.24918C4.0659 5.63868 5.26598 4.35029 6.76609 4.35029C8.26619 4.35029 9.46627 5.63868 9.46627 7.24918C9.46627 8.85967 8.26619 10.1481 6.76609 10.1481ZM25.5174 27.3804H21.0171V18.8447C21.0171 17.5564 19.967 16.429 18.7669 16.429C17.5668 16.429 16.5168 17.5564 16.5168 18.8447V27.3804H12.0164V12.8859H16.5168V14.8185C17.2668 13.5301 18.9169 12.5638 20.267 12.5638C23.1172 12.5638 25.5174 15.1406 25.5174 18.2005V27.3804Z" fill="white"/>
</g>
<defs>
<clipPath id="clip0_3402_3961">
<rect width="30.0021" height="32.2099" fill="white" transform="translate(0.0117188 0.00195312)"/>
</clipPath>
</defs>
</svg>
