<svg width="31" height="33" viewBox="0 0 31 33" fill="none" xmlns="http://www.w3.org/2000/svg">
<g clip-path="url(#clip0_3402_3956)">
<path d="M15.0167 0.00195312C6.7321 0.00195312 0.015625 7.21236 0.015625 16.1069C0.015625 25.0014 6.7321 32.2118 15.0167 32.2118C23.3012 32.2118 30.0177 25.0014 30.0177 16.1069C30.0177 7.21236 23.3012 0.00195312 15.0167 0.00195312ZM16.7428 21.4562C15.3552 21.4562 14.0501 20.6509 13.6033 19.7365C13.6033 19.7365 12.8568 22.9146 12.7 23.5279C12.1435 25.6961 10.5067 27.8649 10.3793 28.0425C10.2906 28.1661 10.0945 28.1275 10.0742 27.9634C10.0395 27.6873 9.6215 24.952 10.1132 22.7212C10.359 21.6009 11.7654 15.2037 11.7654 15.2037C11.7654 15.2037 11.3559 14.3229 11.3559 13.0207C11.3559 10.9761 12.4596 9.44975 13.8341 9.44975C15.0025 9.44975 15.5667 10.3918 15.5667 11.5211C15.5667 12.7824 14.819 14.6686 14.4332 16.4163C14.1106 17.8797 15.1161 19.0735 16.4604 19.0735C18.8953 19.0735 20.534 15.7164 20.534 11.7382C20.534 8.71527 18.6384 6.45151 15.1879 6.45151C11.2909 6.45151 8.86063 9.57233 8.86063 13.0589C8.86063 14.2603 9.1915 15.1088 9.70897 15.7642C9.94623 16.0657 9.97999 16.187 9.89374 16.533C9.83144 16.787 9.69117 17.3979 9.63163 17.6395C9.546 17.9894 9.28265 18.114 8.9877 17.9851C7.19341 17.1986 6.35672 15.0877 6.35672 12.7149C6.35672 8.796 9.43489 4.09681 15.5406 4.09681C20.4468 4.09681 23.676 7.90796 23.676 11.9999C23.6763 17.4131 20.8731 21.4562 16.7428 21.4562Z" fill="white"/>
</g>
<defs>
<clipPath id="clip0_3402_3956">
<rect width="30.0021" height="32.2099" fill="white" transform="translate(0.0195312 0.00195312)"/>
</clipPath>
</defs>
</svg>
