<svg width="31" height="33" viewBox="0 0 31 33" fill="none" xmlns="http://www.w3.org/2000/svg">
<g clip-path="url(#clip0_3402_3952)">
<path d="M30.0099 5.77338C28.8867 6.30811 27.7587 6.71178 26.5087 6.84809C27.7587 6.04074 28.7598 4.69867 29.2579 3.22028C28.0078 4.02763 26.7577 4.56236 25.3855 4.83497C24.1354 3.49289 22.5094 2.68555 20.7612 2.68555C17.3821 2.68555 14.6328 5.63707 14.6328 9.25964C14.6328 9.79961 14.6328 10.3343 14.7598 10.738C9.6325 10.4707 5.13512 7.91756 2.13198 3.89132C1.50694 4.83497 1.2579 6.04074 1.2579 7.24652C1.2579 9.53225 2.38102 11.5454 4.00711 12.7511C3.00607 12.6148 2.0099 12.3475 1.2579 11.9438C1.2579 11.9438 1.2579 11.9438 1.2579 12.0801C1.2579 15.299 3.38207 17.9831 6.13128 18.5231C5.6332 18.6542 5.13512 18.7905 4.51008 18.7905C4.13407 18.7905 3.75807 18.7905 3.38207 18.6542C4.13407 21.3383 6.3852 23.2204 9.13441 23.2204C7.01025 24.9662 4.38311 26.0356 1.50694 26.0356C1.00886 26.0356 0.505894 26.0356 0.0078125 25.9046C2.75702 27.7814 6.0092 28.8561 9.38346 28.8561C20.7612 28.8561 26.8847 18.7905 26.8847 10.067C26.8847 9.79961 26.8847 9.53225 26.8847 9.25964C28.1347 8.32123 29.1358 7.11545 30.0099 5.77338Z" fill="white"/>
</g>
<defs>
<clipPath id="clip0_3402_3952">
<rect width="30.0021" height="32.2099" fill="white" transform="translate(0.0078125 0.00195312)"/>
</clipPath>
</defs>
</svg>
