<svg width="31" height="33" viewBox="0 0 31 33" fill="none" xmlns="http://www.w3.org/2000/svg">
<g clip-path="url(#clip0_3402_3954)">
<path d="M28.4809 8.5583C28.1568 7.26465 27.2068 6.24489 26.002 5.89655C23.801 5.25 14.9967 5.25 14.9967 5.25C14.9967 5.25 6.1928 5.25 3.99178 5.87203C2.81015 6.22001 1.83694 7.26484 1.51282 8.5583C0.933594 10.9211 0.933594 15.8213 0.933594 15.8213C0.933594 15.8213 0.933594 20.7461 1.51282 23.0842C1.83728 24.3777 2.78698 25.3975 3.99195 25.7458C6.21598 26.3925 14.9971 26.3925 14.9971 26.3925C14.9971 26.3925 23.801 26.3925 26.002 25.7705C27.207 25.4223 28.1568 24.4026 28.4813 23.1091C29.0603 20.7461 29.0603 15.8462 29.0603 15.8462C29.0603 15.8462 29.0835 10.9211 28.4809 8.5583ZM12.1936 20.3482V11.2943L19.5148 15.8213L12.1936 20.3482Z" fill="white"/>
</g>
<defs>
<clipPath id="clip0_3402_3954">
<rect width="30.0021" height="32.2099" fill="white" transform="translate(0.015625 0.00195312)"/>
</clipPath>
</defs>
</svg>
